<?xml version="1.0" encoding="UTF-8" standalone="no"?>
<svg
   xmlns:dc="http://purl.org/dc/elements/1.1/"
   xmlns:cc="http://creativecommons.org/ns#"
   xmlns:rdf="http://www.w3.org/1999/02/22-rdf-syntax-ns#"
   xmlns:svg="http://www.w3.org/2000/svg"
   xmlns="http://www.w3.org/2000/svg"
   xmlns:xlink="http://www.w3.org/1999/xlink"
   xmlns:sodipodi="http://sodipodi.sourceforge.net/DTD/sodipodi-0.dtd"
   xmlns:inkscape="http://www.inkscape.org/namespaces/inkscape"
   width="210mm"
   height="297mm"
   viewBox="0 0 210 297"
   version="1.1"
   id="svg8"
   inkscape:version="1.0.2 (e86c870879, 2021-01-15)"
   sodipodi:docname="drawing2.svg">
  <defs
     id="defs2">
    <linearGradient
       inkscape:collect="always"
       id="linearGradient1006">
      <stop
         style="stop-color:#ffff00;stop-opacity:1;"
         offset="0"
         id="stop1002" />
      <stop
         style="stop-color:#ffff00;stop-opacity:0;"
         offset="1"
         id="stop1004" />
    </linearGradient>
    <radialGradient
       inkscape:collect="always"
       xlink:href="#linearGradient1006"
       id="radialGradient1008"
       cx="-271.52679"
       cy="-35.549442"
       fx="-271.52679"
       fy="-35.549446"
       r="42.870427"
       gradientTransform="matrix(7.5061376,-2.628088,2.6747574,7.6394297,1861.6768,-477.56825)"
       gradientUnits="userSpaceOnUse" />
    <radialGradient
       inkscape:collect="always"
       xlink:href="#linearGradient1006"
       id="radialGradient1010"
       cx="-570.04242"
       cy="432.76965"
       fx="-570.04242"
       fy="432.76965"
       r="972.88628"
       gradientTransform="matrix(-1.5736276,0.04359306,-0.03681146,-1.328825,-1907.3467,465.56502)"
       gradientUnits="userSpaceOnUse" />
    <filter
       inkscape:collect="always"
       style="color-interpolation-filters:sRGB"
       id="filter1326"
       x="-0.1435016"
       width="1.2870032"
       y="-0.83111338"
       height="2.6622268">
      <feGaussianBlur
         inkscape:collect="always"
         stdDeviation="6.7366736"
         id="feGaussianBlur1328" />
    </filter>
    <filter
       inkscape:collect="always"
       style="color-interpolation-filters:sRGB"
       id="filter1568"
       x="-0.11153577"
       width="1.2230715"
       y="-0.2214754"
       height="1.4429508">
      <feGaussianBlur
         inkscape:collect="always"
         stdDeviation="2.0463063"
         id="feGaussianBlur1570" />
    </filter>
  </defs>
  <sodipodi:namedview
     id="base"
     pagecolor="#ffffff"
     bordercolor="#666666"
     borderopacity="1.0"
     inkscape:pageopacity="0.0"
     inkscape:pageshadow="2"
     inkscape:zoom="0.46162811"
     inkscape:cx="-1052.8574"
     inkscape:cy="715.66335"
     inkscape:document-units="mm"
     inkscape:current-layer="layer1"
     inkscape:document-rotation="0"
     showgrid="false"
     inkscape:snap-global="false"
     inkscape:window-width="2560"
     inkscape:window-height="1017"
     inkscape:window-x="-8"
     inkscape:window-y="-8"
     inkscape:window-maximized="1" />
  <metadata
     id="metadata5">
    <rdf:RDF>
      <cc:Work
         rdf:about="">
        <dc:format>image/svg+xml</dc:format>
        <dc:type
           rdf:resource="http://purl.org/dc/dcmitype/StillImage" />
        <dc:title></dc:title>
      </cc:Work>
    </rdf:RDF>
  </metadata>
  <g
     inkscape:label="Layer 1"
     inkscape:groupmode="layer"
     id="layer1">
    <path
       style="fill:#ffffff;fill-opacity:0.176707;stroke:#ffffff;stroke-width:0.264583px;stroke-linecap:butt;stroke-linejoin:miter;stroke-opacity:1;filter:url(#filter1326)"
       d="m -499.30503,-41.338568 18.64288,-11.34784 14.59008,4.86336 h 11.34785 l 8.10559,-1.62112 0.81057,4.863361 h 19.45344 l 10.53728,-5.673921 1.62112,4.863361 21.88512,-0.81056 4.86336,-1.62112 0.81056,6.48448 -4.0528,4.0528 -4.86336,-0.81056 -6.48448,-0.81056 -6.48448,2.43168 -5.67392,0.810561 -19.45345,-0.810561 -7.29504,3.242241 -6.48448,-0.81056 -17.02176,0.81056 -22.69569,-2.43168 -5.67392,1.62112 z"
       id="path1012" />
    <path
       id="path973"
       style="fill:#00ffff;fill-opacity:0.176707;stroke:#680000;stroke-width:0.0152616;stroke-linecap:round;paint-order:markers stroke fill"
       d="m -535.91587,-116.41667 v 437.19501 l 9.9994,1.33326 20.0603,-5.15834 11.4629,4.01217 9.1704,-4.01217 5.7315,1.14618 8.5974,2.86599 3.439,1.14617 9.1706,8.02431 8.5969,-0.57308 11.4633,-1.7198 10.8898,1.7198 4.58525,-2.86597 6.30454,-1.71929 h 16.62171 l 6.87763,2.29238 17.76791,-11.46286 c 0,0 0.64476,0.7521 1.6836,1.85361 0.51943,0.55076 1.13702,1.18896 1.82213,1.86397 0.68508,0.67503 1.43761,1.38713 2.2257,2.08568 0.78809,0.69853 1.61176,1.38375 2.44015,2.00504 0.82838,0.62129 1.66155,1.1783 2.46755,1.6216 0.40299,0.22165 0.79928,0.41484 1.18494,0.57309 0.38566,0.15828 0.76041,0.28205 1.12085,0.36433 0.36047,0.0823 0.70663,0.12309 1.03405,0.11679 0.32745,-0.006 0.63637,-0.06 0.92294,-0.16743 0.57317,-0.21495 1.13718,-0.51038 1.68569,-0.86302 0.54853,-0.35261 1.08117,-0.76231 1.59163,-1.2056 0.51049,-0.44331 0.99883,-0.92019 1.4578,-1.40716 0.45897,-0.48694 0.88858,-0.98401 1.28262,-1.46759 0.78806,-0.96721 1.43325,-1.88066 1.881,-2.5523 0.44778,-0.67167 0.69816,-1.10175 0.69816,-1.10175 l 4.58525,9.7436 22.35317,-1.71929 6.8776,-2.29288 22.35317,1.1467 14.90191,1.71929 13.75577,-4.58525 h 17.19429 l 8.02432,-5.73143 16.62172,-2.866 13.18215,-8.02378 14.32884,-0.57311 11.46338,2.29237 28.65716,2.29288 4.58525,-5.15884 5.73195,-3.43855 7.45071,-4.01217 39.54746,10.88977 24.645524,6.87814 7.45123,-4.01214 24.07243,1.14617 7.45071,2.29235 c 0,0 2.11349,0.0362 5.2927,0.17055 1.5896,0.0672 3.44591,0.15894 5.43739,0.28318 1.46652,0.0915 3.04118,0.22207 4.6023,0.35193 v -430.73651 z" />
    <path
       id="path1580"
       style="fill:#e3dedb;stroke:#000000;stroke-width:0.235741px;stroke-linecap:butt;stroke-linejoin:miter;stroke-opacity:1"
       d="m -77.929268,263.05483 -5.887718,3.41061 -6.42291,-0.48718 -1.606099,0.97434 -4.817308,3.41061 -3.211694,1.4615 -3.211213,2.43628 h -1.0709 l -7.49331,2.43582 h -1.60608 -5.35253 -3.2112 l -3.2117,-1.46149 -2.1413,-1.46151 -5.88772,-2.43627 -4.28211,-0.97433 -2.14082,0.48716 -4.8173,4.38495 -3.74691,4.38494 -3.7469,3.4106 -8.56419,3.41061 -3.7469,1.94868 -3.7469,-2.43584 -5.35252,0.48716 -4.28211,0.97432 -5.88772,-0.48715 h -3.7469 l -4.2821,0.48715 -3.7469,1.46151 -8.56374,-1.94866 h -6.42338 l -7.06093,0.32859 -0.43289,-0.32859 -0.48935,0.3712 -12.96165,0.60315 h -2.60651 l -0.17037,0.12914 -1.61959,0.0756 -11.59157,-0.69188 3.68561,1.05958 -23.83222,1.10876 -0.19304,-0.21966 -10.70548,-0.48717 -1.97191,1.30557 -63.68046,2.96208 -1.25524,-0.85705 -2.24022,1.0196 -8.31516,0.38701 -7.10776,-1.40661 -2.67649,-0.97432 -2.14128,1.94867 -1.1428,1.04022 -4.41144,0.20516 -3.00951,-1.24538 -1.07087,-2.923 -2.14083,0.48716 -3.74688,1.46149 -20.87533,1.94912 -3.74641,-0.97477 -1.0709,-1.46151 -1.07039,-0.97433 -5.35252,-1.46194 h -3.21171 l -3.74687,0.97478 h -2.67603 l -4.28211,2.923 -8.5642,3.89777 19.56312,-0.55877 -40.8395,1.89947 -1.20457,-1.82787 -4.8173,0.97434 h -3.2117 -4.81729 -3.21123 l -3.21169,1.46194 -0.68917,0.37647 -10.01249,0.46564 -2.14467,-0.35494 -0.81172,0.49242 -43.19501,1.45624 0.30996,55.54317 514.725421,-0.97435 -0.535201,-64.8002 -6.958607,-3.89779 -3.211694,-0.97432 -5.887718,-3.41062 -2.140813,-1.9491 -5.352986,-0.97433 -4.817314,-0.97432 h -3.211217 c 0,0 -2.676381,2e-4 -3.746905,-1.94868 -1.070514,-1.94888 -3.211693,-1.46195 -3.211693,-1.46195 l -3.211702,-0.48715 -4.817307,-3.89779 -5.887709,-2.92341 z"
       sodipodi:nodetypes="ccccccccccccccccccccccccccccccccccccccccccccccccccccccccccccccccccccccccccccccccccccccccccsccccc" />
    <path
       id="path856"
       style="fill:#ac9393;fill-opacity:0.53815264;stroke:#680000;stroke-width:0.0576816;stroke-linecap:round;paint-order:markers stroke fill"
       d="M -82.857422 1187.9805 C -88.757736 1187.4897 -94.709196 1186.9962 -100.25195 1186.6504 C -107.77881 1186.1808 -114.79479 1185.8339 -120.80273 1185.5801 C -132.81863 1185.0724 -140.80664 1184.9355 -140.80664 1184.9355 L -168.9668 1176.2715 L -259.94922 1171.9395 L -288.11133 1187.1035 L -381.25977 1161.1074 L -530.73047 1119.9492 L -558.89062 1135.1133 L -580.55469 1148.1094 L -597.88477 1167.6074 L -706.19531 1158.9414 L -749.52148 1150.2773 L -803.67773 1152.4434 L -853.5 1182.7695 L -916.32227 1193.6016 L -946.65039 1215.2637 L -1011.6367 1215.2637 L -1063.627 1232.5938 L -1119.9492 1226.0957 L -1204.4336 1221.7617 L -1230.4277 1230.4277 L -1314.9121 1236.9258 L -1332.2422 1200.0996 C -1332.2422 1200.0996 -1333.1885 1201.7251 -1334.8809 1204.2637 C -1336.5732 1206.8022 -1339.0117 1210.2546 -1341.9902 1213.9102 C -1343.4795 1215.7379 -1345.1032 1217.6166 -1346.8379 1219.457 C -1348.5726 1221.2975 -1350.4183 1223.0999 -1352.3477 1224.7754 C -1354.277 1226.4508 -1356.2901 1227.9993 -1358.3633 1229.332 C -1360.4364 1230.6648 -1362.5681 1231.7814 -1364.7344 1232.5938 C -1365.8175 1232.9999 -1366.9851 1233.2028 -1368.2227 1233.2266 C -1369.4602 1233.2504 -1370.7685 1233.0961 -1372.1309 1232.7852 C -1373.4932 1232.4742 -1374.9096 1232.0064 -1376.3672 1231.4082 C -1377.8248 1230.8101 -1379.3226 1230.0799 -1380.8457 1229.2422 C -1383.892 1227.5667 -1387.041 1225.4615 -1390.1719 1223.1133 C -1393.3028 1220.7651 -1396.4159 1218.1753 -1399.3945 1215.5352 C -1402.3731 1212.895 -1405.2173 1210.2036 -1407.8066 1207.6523 C -1410.396 1205.1011 -1412.7302 1202.689 -1414.6934 1200.6074 C -1418.6197 1196.4442 -1421.0566 1193.6016 -1421.0566 1193.6016 L -1488.2109 1236.9258 L -1514.2051 1228.2617 L -1577.0273 1228.2617 L -1600.8555 1234.7598 L -1618.1855 1245.5918 L -1659.3438 1239.0918 L -1702.6699 1245.5918 L -1735.1621 1247.7578 L -1769.8223 1217.4297 L -1782.8203 1213.0977 L -1815.3145 1202.2656 L -1836.9766 1197.9336 L -1871.6367 1213.0977 L -1914.9609 1197.9336 L -1990.7793 1217.4297 L -2028.5723 1212.3906 L -2028.5723 1265.9199 C -2027.4331 1265.2435 -2026.4288 1264.5799 -2025.2812 1263.9043 C -2015.8505 1258.3518 -2006.1635 1252.8382 -1996.6992 1247.5703 C -1977.7706 1237.0346 -1959.7333 1227.4802 -1946.4297 1220.5605 C -1933.1261 1213.6409 -1924.5547 1209.3555 -1924.5547 1209.3555 L -1790.2695 1249.3555 L -1744.5547 1257.9277 L -1701.6992 1260.7852 L -1635.9844 1257.9277 L -1595.9844 1286.498 C -1595.9844 1286.498 -1594.1978 1283.4632 -1591.1621 1278.8203 C -1589.6442 1276.4989 -1587.8142 1273.7746 -1585.7383 1270.8281 C -1583.6624 1267.8817 -1581.3418 1264.7123 -1578.8418 1261.498 C -1576.3418 1258.2838 -1573.6632 1255.0254 -1570.873 1251.9004 C -1568.0829 1248.7754 -1565.1808 1245.784 -1562.2344 1243.1055 C -1560.7612 1241.7662 -1559.2762 1240.5044 -1557.7891 1239.3438 C -1556.3019 1238.183 -1554.8125 1237.123 -1553.3281 1236.1855 C -1551.8438 1235.248 -1550.3652 1234.4333 -1548.9004 1233.7637 C -1547.4355 1233.094 -1545.9833 1232.57 -1544.5547 1232.2129 C -1543.1261 1231.8557 -1541.7087 1231.6998 -1540.3066 1231.7207 C -1538.9046 1231.7416 -1537.5195 1231.9395 -1536.1523 1232.291 C -1534.7852 1232.6426 -1533.4372 1233.1484 -1532.1133 1233.7832 C -1530.7893 1234.418 -1529.4891 1235.1822 -1528.2168 1236.0527 C -1526.9445 1236.9233 -1525.6987 1237.9001 -1524.4863 1238.959 C -1523.274 1240.0179 -1522.0951 1241.1576 -1520.9512 1242.3574 C -1518.6632 1244.757 -1516.519 1247.3917 -1514.5547 1250.0703 C -1512.5904 1252.7489 -1510.8061 1255.4727 -1509.2324 1258.0508 C -1507.6588 1260.6289 -1506.2958 1263.0619 -1505.1797 1265.1602 C -1502.9475 1269.3566 -1501.6992 1272.2129 -1501.6992 1272.2129 L -1390.2695 1257.9277 C -1336.5734 1258.5893 -1282.418 1258.5898 -1282.418 1258.5898 L -1254.2559 1245.5918 L -1217.4297 1247.7578 L -1184.9375 1265.0879 L -1093.9551 1260.7559 L -1057.1289 1243.4258 L -1020.3027 1265.0879 L -972.64453 1243.4258 L -935.81836 1258.5898 L -907.65625 1275.918 L -844.83594 1260.7559 L -825.33984 1247.7578 L -795.01172 1245.5918 C -795.01172 1245.5918 -782.01419 1251.0063 -767.93359 1256.4219 C -760.8933 1259.1297 -753.5828 1261.8383 -747.49023 1263.8691 C -744.44395 1264.8846 -741.70204 1265.7299 -739.45117 1266.3223 C -737.20031 1266.9146 -735.44054 1267.2539 -734.35742 1267.2539 C -733.2743 1267.2539 -731.81933 1267.0507 -730.10156 1266.6953 C -728.3838 1266.3399 -726.40388 1265.8319 -724.27148 1265.2227 C -720.00669 1264.0041 -715.13257 1262.3805 -710.5293 1260.7559 C -701.32275 1257.5065 -693.19922 1254.2559 -693.19922 1254.2559 L -654.20703 1249.9238 L -506.90234 1265.0879 L -465.74219 1230.4277 L -448.41211 1228.2617 L -420.25195 1234.7598 L -366.0957 1249.9238 L -257.7832 1262.9219 L -225.28906 1234.7598 L -166.80078 1249.9238 L -140.80664 1230.4277 L -95.314453 1223.9297 L -82.857422 1230.9707 L -82.857422 1187.9805 z "
       transform="scale(0.26458333)" />
    <path
       id="path870"
       style="fill:url(#radialGradient1010);fill-opacity:1;stroke:#680000;stroke-width:0.0576816;stroke-linecap:round;paint-order:markers stroke fill;stroke-opacity:0.99598396"
       d="M -2028.5723 -440 L -2028.5723 88.417969 L -1142.6992 -159.30469 L -1142.6992 -104.16016 L -2028.5723 473.70117 L -2028.5723 905.75 L -1121.2539 -85.779297 L -1056.9199 -39.826172 L -1748.1094 1236.4277 L -1735.1621 1247.7578 L -1702.6699 1245.5918 L -1659.3438 1239.0918 L -1618.1855 1245.5918 L -1600.8555 1234.7598 L -1577.0273 1228.2617 L -1514.2051 1228.2617 L -1488.2109 1236.9258 L -1421.0566 1193.6016 C -1421.0566 1193.6016 -1418.6197 1196.4442 -1414.6934 1200.6074 C -1412.7302 1202.689 -1410.396 1205.1011 -1407.8066 1207.6523 C -1405.2173 1210.2036 -1402.3731 1212.895 -1399.3945 1215.5352 C -1396.4159 1218.1753 -1393.3028 1220.7651 -1390.1719 1223.1133 C -1387.041 1225.4615 -1383.892 1227.5667 -1380.8457 1229.2422 C -1379.3226 1230.0799 -1377.8248 1230.8101 -1376.3672 1231.4082 C -1374.9096 1232.0064 -1373.4932 1232.4742 -1372.1309 1232.7852 C -1370.7685 1233.0961 -1369.4602 1233.2504 -1368.2227 1233.2266 C -1366.9851 1233.2028 -1365.8175 1232.9998 -1364.7344 1232.5938 C -1362.5681 1231.7814 -1360.4364 1230.6648 -1358.3633 1229.332 C -1356.2901 1227.9993 -1354.277 1226.4508 -1352.3477 1224.7754 C -1350.4183 1223.0999 -1348.5726 1221.2975 -1346.8379 1219.457 C -1345.1032 1217.6166 -1343.4795 1215.7379 -1341.9902 1213.9102 C -1339.0117 1210.2546 -1336.5732 1206.8022 -1334.8809 1204.2637 C -1333.1885 1201.7251 -1332.2422 1200.0996 -1332.2422 1200.0996 L -1314.9121 1236.9258 L -1230.4277 1230.4277 L -1204.4336 1221.7617 L -1119.9492 1226.0957 L -1063.627 1232.5938 L -1025.4355 1219.8633 L -1020.1562 -36.761719 L -952.75977 -58.207031 L -528.16992 1120.6543 L -381.25977 1161.1074 L -288.11133 1187.1035 L -259.94922 1171.9395 L -168.9668 1176.2715 L -140.80664 1184.9355 C -140.80664 1184.9355 -132.81863 1185.0724 -120.80273 1185.5801 C -114.79479 1185.8339 -107.77881 1186.1808 -100.25195 1186.6504 C -94.709199 1186.9962 -88.757736 1187.4897 -82.857422 1187.9805 L -82.857422 465.89453 L -919.06055 -76.587891 L -915.99609 -134.79492 L -82.857422 31.25 L -82.857422 -367.99414 L -919.06055 -177.68555 L -946.63281 -226.70117 L -641.91992 -440 L -882.71289 -440 L -992.58594 -238.95508 L -1044.666 -245.08203 L -1049.1992 -440 L -1172.2773 -440 L -1063.0469 -242.01953 L -1109 -220.57422 L -1308.0137 -440 L -1475.8125 -440 L -1056.9199 -168.49414 L -1075.3008 -137.85938 L -1830.6523 -440 L -2028.5723 -440 z "
       transform="scale(0.26458333)" />
    <path
       id="rect833"
       style="fill:#483737;fill-opacity:0.88755018;stroke:#680000;stroke-width:0.0576816;stroke-linecap:round;paint-order:markers stroke fill"
       d="M -77.142578 1316.9766 L -148.57227 1308.5723 L -222.85742 1300 L -274.28516 1317.1426 C -274.28516 1317.1426 -285.71345 1316.4291 -298.92773 1315.7148 C -312.14202 1315.0006 -327.1423 1314.2852 -334.28516 1314.2852 C -336.07087 1314.2852 -338.16992 1314.0625 -340.47461 1313.6719 C -342.7793 1313.2813 -345.29074 1312.7224 -347.90234 1312.0527 C -353.12556 1310.7134 -358.74916 1308.9283 -363.92773 1307.1426 C -374.28488 1303.5712 -382.85742 1300 -382.85742 1300 L -460 1300 L -565.71484 1300 L -628.57227 1325.7148 L -725.71484 1317.1426 L -745.71484 1328.5723 L -814.28516 1331.4277 L -902.85742 1302.8574 L -934.28516 1308.5723 L -974.28516 1322.8574 L -1091.4277 1311.4277 L -1114.2852 1305.7148 L -1165.7148 1320 L -1242.8574 1311.4277 L -1260 1325.7148 L -1348.5723 1331.4277 L -1417.1426 1308.5723 L -1465.7148 1317.1426 L -1545.7148 1322.8574 L -1600 1291.4277 L -1725.7148 1291.4277 L -1791.4277 1288.5723 L -1840 1294.2852 L -1917.1426 1291.4277 L -2008.5723 1277.1426 L -2022.8574 1278.8242 L -2022.8574 1351.4277 L -77.142578 1351.4277 L -77.142578 1316.9766 z "
       transform="scale(0.26458333)" />
    <path
       id="path851"
       style="fill:#ac9393;fill-opacity:0.83534139;stroke:#680000;stroke-width:0.0576816;stroke-linecap:round;paint-order:markers stroke fill"
       d="M -82.857422 1230.9707 L -95.314453 1223.9297 L -140.80664 1230.4277 L -166.80078 1249.9238 L -225.28906 1234.7598 L -257.7832 1262.9219 L -366.0957 1249.9238 L -420.25195 1234.7598 L -448.41211 1228.2617 L -465.74219 1230.4277 L -506.90234 1265.0879 L -654.20703 1249.9238 L -693.19922 1254.2559 C -693.19922 1254.2559 -701.32275 1257.5065 -710.5293 1260.7559 C -715.13257 1262.3805 -720.00669 1264.0041 -724.27148 1265.2227 C -726.40388 1265.8319 -728.3838 1266.3399 -730.10156 1266.6953 C -731.81933 1267.0507 -733.2743 1267.2539 -734.35742 1267.2539 C -735.44054 1267.2539 -737.20031 1266.9146 -739.45117 1266.3223 C -741.70204 1265.7299 -744.44395 1264.8846 -747.49023 1263.8691 C -753.5828 1261.8383 -760.8933 1259.1297 -767.93359 1256.4219 C -782.01419 1251.0063 -795.01172 1245.5918 -795.01172 1245.5918 L -825.33984 1247.7578 L -844.83594 1260.7559 L -907.65625 1275.918 L -935.81836 1258.5898 L -972.64453 1243.4258 L -1020.3027 1265.0879 L -1057.1289 1243.4258 L -1093.9551 1260.7559 L -1184.9375 1265.0879 L -1217.4297 1247.7578 L -1254.2559 1245.5918 L -1282.418 1258.5898 C -1282.418 1258.5898 -1336.5734 1258.5893 -1390.2695 1257.9277 L -1501.6992 1272.2129 C -1501.6992 1272.2129 -1502.9475 1269.3566 -1505.1797 1265.1602 C -1506.2958 1263.0619 -1507.6588 1260.6289 -1509.2324 1258.0508 C -1510.8061 1255.4727 -1512.5904 1252.7489 -1514.5547 1250.0703 C -1516.519 1247.3917 -1518.6632 1244.757 -1520.9512 1242.3574 C -1522.0951 1241.1576 -1523.274 1240.0179 -1524.4863 1238.959 C -1525.6987 1237.9001 -1526.9445 1236.9233 -1528.2168 1236.0527 C -1529.4891 1235.1822 -1530.7893 1234.418 -1532.1133 1233.7832 C -1533.4372 1233.1484 -1534.7852 1232.6426 -1536.1523 1232.291 C -1537.5195 1231.9395 -1538.9046 1231.7416 -1540.3066 1231.7207 C -1541.7087 1231.6998 -1543.1261 1231.8557 -1544.5547 1232.2129 C -1545.9833 1232.57 -1547.4355 1233.094 -1548.9004 1233.7637 C -1550.3652 1234.4333 -1551.8438 1235.248 -1553.3281 1236.1855 C -1554.8125 1237.123 -1556.3019 1238.183 -1557.7891 1239.3438 C -1559.2762 1240.5045 -1560.7612 1241.7662 -1562.2344 1243.1055 C -1565.1808 1245.784 -1568.0829 1248.7754 -1570.873 1251.9004 C -1573.6632 1255.0254 -1576.3418 1258.2838 -1578.8418 1261.498 C -1581.3418 1264.7123 -1583.6624 1267.8817 -1585.7383 1270.8281 C -1587.8142 1273.7746 -1589.6442 1276.4989 -1591.1621 1278.8203 C -1594.1978 1283.4632 -1595.9844 1286.498 -1595.9844 1286.498 L -1635.9844 1257.9277 L -1701.6992 1260.7852 L -1744.5547 1257.9277 L -1790.2695 1249.3555 L -1924.5547 1209.3555 C -1924.5547 1209.3555 -1933.1261 1213.6409 -1946.4297 1220.5605 C -1959.7333 1227.4802 -1977.7706 1237.0346 -1996.6992 1247.5703 C -2006.1635 1252.8382 -2015.8504 1258.3518 -2025.2812 1263.9043 C -2026.4288 1264.5799 -2027.4331 1265.2435 -2028.5723 1265.9199 L -2028.5723 1278.8242 L -2014.2871 1277.1426 L -1922.8574 1291.4277 L -1845.7148 1294.2852 L -1797.1426 1288.5723 L -1731.4297 1291.4277 L -1605.7148 1291.4277 L -1551.4297 1322.8574 L -1471.4297 1317.1426 L -1422.8574 1308.5723 L -1354.2871 1331.4277 L -1265.7148 1325.7148 L -1248.5723 1311.4277 L -1171.4297 1320 L -1120 1305.7148 L -1097.1426 1311.4277 L -980 1322.8574 L -940 1308.5723 L -908.57227 1302.8574 L -820 1331.4277 L -751.42969 1328.5723 L -731.42969 1317.1426 L -634.28711 1325.7148 L -571.42969 1300 L -465.71484 1300 L -388.57227 1300 C -388.57227 1300 -379.99971 1303.5712 -369.64258 1307.1426 C -364.46401 1308.9283 -358.84041 1310.7135 -353.61719 1312.0527 C -351.00559 1312.7224 -348.49414 1313.2813 -346.18945 1313.6719 C -343.88476 1314.0625 -341.78571 1314.2852 -340 1314.2852 C -332.85714 1314.2852 -317.85687 1315.0007 -304.64258 1315.7148 C -291.4283 1316.4291 -280 1317.1426 -280 1317.1426 L -228.57227 1300 L -154.28711 1308.5723 L -82.857422 1316.9766 L -82.857422 1230.9707 z "
       transform="scale(0.26458333)" />
    <ellipse
       style="fill:url(#radialGradient1008);fill-opacity:1;stroke:#680000;stroke-width:0.0372016;stroke-linecap:round;paint-order:markers stroke fill"
       id="path873"
       cx="-271.52679"
       cy="-35.549438"
       rx="42.851826"
       ry="42.327843" />
    <path
       id="path1332"
       style="fill:#ffffff;fill-opacity:0.57429719;stroke:#ffffff;stroke-width:1.91512;stroke-linecap:round;stroke-opacity:0.995984;paint-order:markers stroke fill;filter:url(#filter1568)"
       d="m -436.85394,87.445273 c -3.74311,0.72714 -3.6293,-2.47903 -7.38736,-1.78096 -2.63512,-0.64815 -7.95958,1.27859 -10.01568,3.27382 -2.01661,1.5036 -0.33358,-5.45215 -2.97612,-5.90815 -2.79186,0.0354 -5.07235,0.75111 -6.19857,3.66904 -4.90483,14.064137 7.95692,11.100306 16.39082,15.731697 5.36171,1.94948 11.53026,0.79935 16.20243,-2.34087 2.21081,-4.134961 8.12246,-4.121831 10.19955,-8.375701 0.76654,-2.671166 -1.46509,-4.819006 -2.92182,-6.761736 -1.58873,-2.16683 -4.09681,-3.33975 -6.69112,-3.65174 -2.46105,-1.09593 -0.66162,8.5453 -0.87563,6.12252 -0.12314,-0.74122 -5.52649,0.74697 -5.7265,0.0221 z"
       sodipodi:nodetypes="cccccccccccc"
       transform="matrix(-3.0340445,0,0,0.74912843,-1821.4551,185.35782)" />
    <path
       id="path1572"
       style="fill:#ffffff;fill-opacity:0.57429719;stroke:#ffffff;stroke-width:1.91512;stroke-linecap:round;stroke-opacity:0.995984;paint-order:markers stroke fill;filter:url(#filter1568)"
       d="m -436.85394,87.445273 c -3.74311,0.72714 -3.6293,-2.47903 -7.38736,-1.78096 -2.63512,-0.64815 -7.95958,1.27859 -10.01568,3.27382 -2.01661,1.5036 -0.33358,-5.45215 -2.97612,-5.90815 -2.79186,0.0354 -5.07235,0.75111 -6.19857,3.66904 -4.90483,14.064137 7.95692,11.100306 16.39082,15.731697 5.36171,1.94948 11.53026,0.79935 16.20243,-2.34087 2.21081,-4.134961 8.12246,-4.121831 10.19955,-8.375701 0.76654,-2.671166 -1.46509,-4.819006 -2.92182,-6.761736 -1.58873,-2.16683 -4.09681,-3.33975 -6.69112,-3.65174 -2.46105,-1.09593 -0.66162,8.5453 -0.87563,6.12252 -0.12314,-0.74122 -5.52649,0.74697 -5.7265,0.0221 z"
       sodipodi:nodetypes="cccccccccccc"
       transform="matrix(3.0340445,0,0,-0.74912843,935.31121,353.45204)" />
    <path
       id="path1574"
       style="fill:#ffffff;fill-opacity:0.57429719;stroke:#ffffff;stroke-width:1.91512;stroke-linecap:round;stroke-opacity:0.995984;paint-order:markers stroke fill;filter:url(#filter1568)"
       d="m -436.85394,87.445273 c -3.74311,0.72714 -3.6293,-2.47903 -7.38736,-1.78096 -2.63512,-0.64815 -7.95958,1.27859 -10.01568,3.27382 -2.01661,1.5036 -0.33358,-5.45215 -2.97612,-5.90815 -2.79186,0.0354 -5.07235,0.75111 -6.19857,3.66904 -4.90483,14.064137 7.95692,11.100306 16.39082,15.731697 5.36171,1.94948 11.53026,0.79935 16.20243,-2.34087 2.21081,-4.134961 8.12246,-4.121831 10.19955,-8.375701 0.76654,-2.671166 -1.46509,-4.819006 -2.92182,-6.761736 -1.58873,-2.16683 -4.09681,-3.33975 -6.69112,-3.65174 -2.46105,-1.09593 -0.66162,8.5453 -0.87563,6.12252 -0.12314,-0.74122 -5.52649,0.74697 -5.7265,0.0221 z"
       sodipodi:nodetypes="cccccccccccc"
       transform="matrix(1.4677405,0,0,0.99122459,357.71381,166.45107)" />
    <path
       id="path1576"
       style="fill:#ffffff;fill-opacity:0.57429719;stroke:#ffffff;stroke-width:1.91512;stroke-linecap:round;stroke-opacity:0.995984;paint-order:markers stroke fill;filter:url(#filter1568)"
       d="m -436.85394,87.445273 c -3.74311,0.72714 -3.6293,-2.47903 -7.38736,-1.78096 -2.63512,-0.64815 -7.95958,1.27859 -10.01568,3.27382 -2.01661,1.5036 -0.33358,-5.45215 -2.97612,-5.90815 -2.79186,0.0354 -5.07235,0.75111 -6.19857,3.66904 -4.90483,14.064137 7.95692,11.100306 16.39082,15.731697 5.36171,1.94948 11.53026,0.79935 16.20243,-2.34087 2.21081,-4.134961 8.12246,-4.121831 10.19955,-8.375701 0.76654,-2.671166 -1.46509,-4.819006 -2.92182,-6.761736 -1.58873,-2.16683 -4.09681,-3.33975 -6.69112,-3.65174 -2.46105,-1.09593 -0.66162,8.5453 -0.87563,6.12252 -0.12314,-0.74122 -5.52649,0.74697 -5.7265,0.0221 z"
       sodipodi:nodetypes="cccccccccccc"
       transform="matrix(3.0340445,0,-4.9080939,0.74912843,1590.0818,210.57653)" />
    <path
       id="path1596"
       style="fill:#003600;fill-opacity:0.574297;stroke:#ffffff;stroke-width:0.0181139;stroke-linecap:round;stroke-opacity:0.995984;paint-order:markers stroke fill"
       inkscape:transform-center-x="-2.5660692"
       inkscape:transform-center-y="-63.407569"
       d="m -684.31782,-34.707525 -63.49347,211.031475 -62.92029,205.73831 130.67297,0.38553 136.40462,0.3855 -70.61849,-214.26716 z"
       sodipodi:nodetypes="ccccccc" />
    <path
       style="fill:none;stroke:#000000;stroke-width:0.264583px;stroke-linecap:butt;stroke-linejoin:miter;stroke-opacity:1"
       d="m -826.48599,355.35459 44.13274,2.86576 -20.63348,-51.58372 24.0724,5.15837 -26.93818,-54.4495 43.5596,3.43891 -24.64557,-32.66969 36.68178,-0.57315 -28.65763,-30.37709 29.23077,1.71946 -22.35295,-30.37709 40.1207,4.01207 c 0,0 -40.1207,-51.01058 -36.10861,-49.86427 4.01206,1.1463 66.48569,1.71945 66.48569,1.71945 l -49.29113,-29.230776 41.84015,-8.024135 -25.21871,-26.365017 28.65763,-1.146305 -20.06034,-20.633494 32.66969,4.012068 -19.4872,-25.791864 20.06034,1.719457 -7.45098,-29.23078 10.8899,8.5972883 -21.77978,-37.2549153 55.02264,3.438914 -6.30468,27.5113231 -21.20664,13.1825089 24.64554,-1.7194575 -24.64554,10.8898985 69.92461,1.719458 c 0,0 -61.32732,32.669695 -58.46156,32.096544 2.86575,-0.573154 53.30319,2.865763 53.30319,2.865763 l -71.64408,23.499254 83.68027,8.024135 -77.3756,45.279052 72.79037,6.30468 -56.16895,17.76773 69.35147,4.01207 -52.15689,30.37708 56.74212,6.30468 -48.14483,28.65763 67.05886,9.74359 -65.33938,10.8899 66.48569,16.04827 -70.49778,38.97438 72.21722,0.57314 c 0,0 -68.20513,11.46307 -56.16895,15.47513 12.03622,4.01207 82.53397,24.0724 82.53397,24.0724 l -36.10861,8.02413 38.97439,22.92612 -1.14631,38.97437 -287.72259,1.1463 z"
       id="path1599" />
  </g>
</svg>
